<svg xmlns="http://www.w3.org/2000/svg" width="200" height="200" viewBox="0 0 200 200">
  <rect width="200" height="200" fill="#f1f5f9" rx="8"/>
  <rect x="25" y="25" width="64" height="64" rx="4" fill="#0f172a" opacity="0.85"/>
  <rect x="29" y="29" width="56" height="56" rx="3" fill="#f1f5f9"/>
  <rect x="33" y="33" width="16" height="16" rx="2" fill="#0f172a" opacity="0.85"/>
  <rect x="53" y="33" width="16" height="16" rx="2" fill="#0f172a" opacity="0.85"/>
  <rect x="73" y="33" width="16" height="16" rx="2" fill="#0f172a" opacity="0.85"/>
  <rect x="33" y="53" width="16" height="16" rx="2" fill="#0f172a" opacity="0.85"/>
  <rect x="53" y="53" width="16" height="16" rx="2" fill="#f1f5f9"/>
  <rect x="73" y="53" width="16" height="16" rx="2" fill="#0f172a" opacity="0.85"/>
  <rect x="33" y="73" width="16" height="16" rx="2" fill="#0f172a" opacity="0.85"/>
  <rect x="53" y="73" width="16" height="16" rx="2" fill="#0f172a" opacity="0.85"/>
  <rect x="73" y="73" width="16" height="16" rx="2" fill="#0f172a" opacity="0.85"/>

  <rect x="111" y="25" width="64" height="64" rx="4" fill="#0f172a" opacity="0.85"/>
  <rect x="115" y="29" width="56" height="56" rx="3" fill="#f1f5f9"/>
  <rect x="119" y="33" width="16" height="16" rx="2" fill="#0f172a" opacity="0.85"/>
  <rect x="139" y="33" width="16" height="16" rx="2" fill="#0f172a" opacity="0.85"/>
  <rect x="159" y="33" width="16" height="16" rx="2" fill="#0f172a" opacity="0.85"/>
  <rect x="119" y="53" width="16" height="16" rx="2" fill="#0f172a" opacity="0.85"/>
  <rect x="139" y="53" width="16" height="16" rx="2" fill="#f1f5f9"/>
  <rect x="159" y="53" width="16" height="16" rx="2" fill="#0f172a" opacity="0.85"/>
  <rect x="119" y="73" width="16" height="16" rx="2" fill="#0f172a" opacity="0.85"/>
  <rect x="139" y="73" width="16" height="16" rx="2" fill="#0f172a" opacity="0.85"/>
  <rect x="159" y="73" width="16" height="16" rx="2" fill="#0f172a" opacity="0.85"/>

  <rect x="25" y="111" width="64" height="64" rx="4" fill="#0f172a" opacity="0.85"/>
  <rect x="29" y="115" width="56" height="56" rx="3" fill="#f1f5f9"/>
  <rect x="33" y="119" width="16" height="16" rx="2" fill="#0f172a" opacity="0.85"/>
  <rect x="53" y="119" width="16" height="16" rx="2" fill="#0f172a" opacity="0.85"/>
  <rect x="73" y="119" width="16" height="16" rx="2" fill="#0f172a" opacity="0.85"/>
  <rect x="33" y="139" width="16" height="16" rx="2" fill="#0f172a" opacity="0.85"/>
  <rect x="53" y="139" width="16" height="16" rx="2" fill="#f1f5f9"/>
  <rect x="73" y="139" width="16" height="16" rx="2" fill="#0f172a" opacity="0.85"/>
  <rect x="33" y="159" width="16" height="16" rx="2" fill="#0f172a" opacity="0.85"/>
  <rect x="53" y="159" width="16" height="16" rx="2" fill="#0f172a" opacity="0.85"/>
  <rect x="73" y="159" width="16" height="16" rx="2" fill="#0f172a" opacity="0.85"/>

  <rect x="105" y="111" width="75" height="8" rx="4" fill="#0f172a" opacity="0.85"/>
  <rect x="105" y="125" width="75" height="8" rx="4" fill="#0f172a" opacity="0.6"/>
  <rect x="105" y="139" width="55" height="8" rx="4" fill="#0f172a" opacity="0.4"/>
  <rect x="112" y="153" width="48" height="8" rx="4" fill="#94a3b8"/>
  <rect x="120" y="167" width="30" height="8" rx="4" fill="#cbd5e1"/>
</svg>
